<?xml version='1.0' encoding='utf-8'?>
<svg xmlns="http://www.w3.org/2000/svg" width="1920" height="900" viewBox="0 0 1920 900">
<defs>
  <filter id="shadow" x="-20%" y="-20%" width="140%" height="140%">
    <feDropShadow dx="0" dy="2" stdDeviation="3" flood-color="#0e2a4a" flood-opacity="0.10" />
  </filter>
  <linearGradient id="cylGrad" x1="0" y1="0" x2="1" y2="1">
    <stop offset="0%" stop-color="#c6d8e7" />
    <stop offset="100%" stop-color="#adc6db" />
  </linearGradient>
</defs>
<rect x="0" y="0" width="1920" height="900" fill="#ffffff" />
<rect x="28" y="90" width="350" height="690" rx="12" fill="#deedf8" fill-opacity="1.0" stroke="#76b8e1" stroke-width="1.6" /><path d="M 40,90 H 366 Q 378,90 378,102 V 170 H 28 V 102 Q 28,90 40,90 Z" fill="#216bb8" /><text x="203.0" y="124" font-family="Arial, Helvetica, sans-serif" font-size="23" font-weight="700" fill="#ffffff" text-anchor="middle">1. INPUT DATA</text><text x="203.0" y="152" font-family="Arial, Helvetica, sans-serif" font-size="18" font-weight="400" fill="#ffffff" text-anchor="middle">Multiple formats, one workflow</text><rect x="396" y="90" width="350" height="690" rx="12" fill="#def1f5" fill-opacity="1.0" stroke="#83c6d4" stroke-width="1.6" /><path d="M 408,90 H 734 Q 746,90 746,102 V 170 H 396 V 102 Q 396,90 408,90 Z" fill="#2c8aa3" /><text x="571.0" y="124" font-family="Arial, Helvetica, sans-serif" font-size="23" font-weight="700" fill="#ffffff" text-anchor="middle">2. READERS &amp; POSITIONING</text><text x="571.0" y="152" font-family="Arial, Helvetica, sans-serif" font-size="18" font-weight="400" fill="#ffffff" text-anchor="middle">Get the data in context</text><rect x="764" y="90" width="370" height="690" rx="12" fill="#dff2e6" fill-opacity="1.0" stroke="#84c8a0" stroke-width="1.6" /><path d="M 776,90 H 1122 Q 1134,90 1134,102 V 170 H 764 V 102 Q 764,90 776,90 Z" fill="#2c7b57" /><text x="949.0" y="124" font-family="Arial, Helvetica, sans-serif" font-size="23" font-weight="700" fill="#ffffff" text-anchor="middle">3. PROJECT DATA MODEL</text><text x="949.0" y="152" font-family="Arial, Helvetica, sans-serif" font-size="18" font-weight="400" fill="#ffffff" text-anchor="middle">A unified, traceable structure</text><rect x="1152" y="90" width="350" height="690" rx="12" fill="#f8eedc" fill-opacity="1.0" stroke="#dab06d" stroke-width="1.6" /><path d="M 1164,90 H 1490 Q 1502,90 1502,102 V 170 H 1152 V 102 Q 1152,90 1164,90 Z" fill="#b7772b" /><text x="1327.0" y="124" font-family="Arial, Helvetica, sans-serif" font-size="23" font-weight="700" fill="#ffffff" text-anchor="middle">4. PROCESSING &amp; ANALYSIS</text><text x="1327.0" y="152" font-family="Arial, Helvetica, sans-serif" font-size="18" font-weight="400" fill="#ffffff" text-anchor="middle">Turn data into information</text><rect x="1520" y="90" width="350" height="690" rx="12" fill="#f8eed4" fill-opacity="1.0" stroke="#e3c06d" stroke-width="1.6" /><path d="M 1532,90 H 1858 Q 1870,90 1870,102 V 170 H 1520 V 102 Q 1520,90 1532,90 Z" fill="#cf8b1f" /><text x="1695.0" y="124" font-family="Arial, Helvetica, sans-serif" font-size="23" font-weight="700" fill="#ffffff" text-anchor="middle">5. OUTPUT &amp; INSPECTION</text><text x="1695.0" y="152" font-family="Arial, Helvetica, sans-serif" font-size="18" font-weight="400" fill="#ffffff" text-anchor="middle">Share, visualise, integrate</text><path d="M 368,419 H 388 V 408 L 406,430 L 388,452 V 441 H 368 Z" fill="#2a7fb2" stroke="#ffffff" stroke-width="2.2" filter="url(#shadow)" /><path d="M 736,419 H 756 V 408 L 774,430 L 756,452 V 441 H 736 Z" fill="#2b9aa2" stroke="#ffffff" stroke-width="2.2" filter="url(#shadow)" /><path d="M 1124,419 H 1144 V 408 L 1162,430 L 1144,452 V 441 H 1124 Z" fill="#2a8a56" stroke="#ffffff" stroke-width="2.2" filter="url(#shadow)" /><path d="M 1492,419 H 1512 V 408 L 1530,430 L 1512,452 V 441 H 1492 Z" fill="#be7f2f" stroke="#ffffff" stroke-width="2.2" filter="url(#shadow)" /><rect x="42" y="185" width="322" height="110" rx="10" fill="#fbfdff" fill-opacity="0.92" stroke="#76b8e1" stroke-width="1.2" /><text x="203.0" y="213" font-family="Arial, Helvetica, sans-serif" font-size="17" font-weight="700" fill="#123154" text-anchor="middle"><tspan x="203.0" dy="0">Supported native</tspan><tspan x="203.0" dy="22">multichannel files</tspan></text><text x="203.0" y="263" font-family="Arial, Helvetica, sans-serif" font-size="14" font-weight="400" fill="#35506f" text-anchor="middle"><tspan x="203.0" dy="0">SENSYS PRM structures</tspan></text><rect x="42" y="312" width="322" height="110" rx="10" fill="#fbfdff" fill-opacity="0.92" stroke="#76b8e1" stroke-width="1.2" /><text x="203.0" y="346" font-family="Arial, Helvetica, sans-serif" font-size="17" font-weight="700" fill="#123154" text-anchor="middle">Generic point data</text><text x="203.0" y="374" font-family="Arial, Helvetica, sans-serif" font-size="14" font-weight="400" fill="#35506f" text-anchor="middle"><tspan x="203.0" dy="0">ASC, CSV, TXT, XYZ, DAT</tspan></text><rect x="42" y="439" width="322" height="110" rx="10" fill="#fbfdff" fill-opacity="0.92" stroke="#76b8e1" stroke-width="1.2" /><text x="203.0" y="473" font-family="Arial, Helvetica, sans-serif" font-size="17" font-weight="700" fill="#123154" text-anchor="middle">Gridded magnetic data</text><text x="203.0" y="501" font-family="Arial, Helvetica, sans-serif" font-size="14" font-weight="400" fill="#35506f" text-anchor="middle"><tspan x="203.0" dy="0">Surveys, model grids,</tspan><tspan x="203.0" dy="18">resampled data</tspan></text><rect x="42" y="566" width="322" height="110" rx="10" fill="#fbfdff" fill-opacity="0.92" stroke="#76b8e1" stroke-width="1.2" /><text x="203.0" y="600" font-family="Arial, Helvetica, sans-serif" font-size="17" font-weight="700" fill="#123154" text-anchor="middle">Raster &amp; GIS products</text><text x="203.0" y="628" font-family="Arial, Helvetica, sans-serif" font-size="14" font-weight="400" fill="#35506f" text-anchor="middle"><tspan x="203.0" dy="0">GeoTIFF, ASCII grids,</tspan><tspan x="203.0" dy="18">GeoPackage, Shapefile, GeoJSON</tspan></text><rect x="410" y="185" width="322" height="110" rx="10" fill="#fbfdff" fill-opacity="0.92" stroke="#83c6d4" stroke-width="1.2" /><text x="571.0" y="219" font-family="Arial, Helvetica, sans-serif" font-size="17" font-weight="700" fill="#123154" text-anchor="middle">Format adapters</text><text x="571.0" y="247" font-family="Arial, Helvetica, sans-serif" font-size="14" font-weight="400" fill="#35506f" text-anchor="middle"><tspan x="571.0" dy="0">Native readers and</tspan><tspan x="571.0" dy="18">standard file readers</tspan></text><rect x="410" y="312" width="322" height="110" rx="10" fill="#fbfdff" fill-opacity="0.92" stroke="#83c6d4" stroke-width="1.2" /><text x="571.0" y="346" font-family="Arial, Helvetica, sans-serif" font-size="17" font-weight="700" fill="#123154" text-anchor="middle">GPS/GNSS handling</text><text x="571.0" y="374" font-family="Arial, Helvetica, sans-serif" font-size="14" font-weight="400" fill="#35506f" text-anchor="middle"><tspan x="571.0" dy="0">Positioning, time sync,</tspan><tspan x="571.0" dy="18">coordinate systems</tspan></text><rect x="410" y="439" width="322" height="110" rx="10" fill="#fbfdff" fill-opacity="0.92" stroke="#83c6d4" stroke-width="1.2" /><text x="571.0" y="473" font-family="Arial, Helvetica, sans-serif" font-size="17" font-weight="700" fill="#123154" text-anchor="middle">Sensor geometry</text><text x="571.0" y="501" font-family="Arial, Helvetica, sans-serif" font-size="14" font-weight="400" fill="#35506f" text-anchor="middle"><tspan x="571.0" dy="0">Multiple sensors,</tspan><tspan x="571.0" dy="18">spacing, offsets, orientations</tspan></text><rect x="410" y="566" width="322" height="110" rx="10" fill="#fbfdff" fill-opacity="0.92" stroke="#83c6d4" stroke-width="1.2" /><text x="571.0" y="600" font-family="Arial, Helvetica, sans-serif" font-size="17" font-weight="700" fill="#123154" text-anchor="middle">Coordinate reference</text><text x="571.0" y="628" font-family="Arial, Helvetica, sans-serif" font-size="14" font-weight="400" fill="#35506f" text-anchor="middle"><tspan x="571.0" dy="0">CRS handling,</tspan><tspan x="571.0" dy="18">reprojection, metadata</tspan></text><rect x="799" y="200" width="300" height="476" fill="url(#cylGrad)" stroke="#ffffff" stroke-width="1.5" /><ellipse cx="949.0" cy="200" rx="150.0" ry="18" fill="#c6d8e7" stroke="#ffffff" stroke-width="1.5" /><path d="M 799,200 V 262 A 150.0,18 0 0 0 1099,262 V 200" fill="url(#cylGrad)" fill-opacity="0.98" /><ellipse cx="949.0" cy="262" rx="150.0" ry="18" fill="#adc6db" stroke="#ffffff" stroke-width="1.2" /><text x="949.0" y="229" font-family="Arial, Helvetica, sans-serif" font-size="17" font-weight="700" fill="#123154" text-anchor="middle">Raw data</text><text x="949.0" y="253" font-family="Arial, Helvetica, sans-serif" font-size="14" font-weight="400" fill="#35506f" text-anchor="middle"><tspan x="949.0" dy="0">Original observations</tspan></text><path d="M 799,298 V 360 A 150.0,18 0 0 0 1099,360 V 298" fill="url(#cylGrad)" fill-opacity="0.98" /><ellipse cx="949.0" cy="360" rx="150.0" ry="18" fill="#adc6db" stroke="#ffffff" stroke-width="1.2" /><text x="949.0" y="327" font-family="Arial, Helvetica, sans-serif" font-size="17" font-weight="700" fill="#123154" text-anchor="middle">Normalised observations</text><text x="949.0" y="351" font-family="Arial, Helvetica, sans-serif" font-size="14" font-weight="400" fill="#35506f" text-anchor="middle"><tspan x="949.0" dy="0">Cleaned, aligned, standard units</tspan></text><path d="M 799,396 V 458 A 150.0,18 0 0 0 1099,458 V 396" fill="url(#cylGrad)" fill-opacity="0.98" /><ellipse cx="949.0" cy="458" rx="150.0" ry="18" fill="#adc6db" stroke="#ffffff" stroke-width="1.2" /><text x="949.0" y="425" font-family="Arial, Helvetica, sans-serif" font-size="17" font-weight="700" fill="#123154" text-anchor="middle">Project metadata</text><text x="949.0" y="449" font-family="Arial, Helvetica, sans-serif" font-size="14" font-weight="400" fill="#35506f" text-anchor="middle"><tspan x="949.0" dy="0">Survey info, coordinate systems,</tspan><tspan x="949.0" dy="17">sensors, processing history</tspan></text><path d="M 799,494 V 556 A 150.0,18 0 0 0 1099,556 V 494" fill="url(#cylGrad)" fill-opacity="0.98" /><ellipse cx="949.0" cy="556" rx="150.0" ry="18" fill="#adc6db" stroke="#ffffff" stroke-width="1.2" /><text x="949.0" y="523" font-family="Arial, Helvetica, sans-serif" font-size="17" font-weight="700" fill="#123154" text-anchor="middle">Result stages</text><text x="949.0" y="547" font-family="Arial, Helvetica, sans-serif" font-size="14" font-weight="400" fill="#35506f" text-anchor="middle"><tspan x="949.0" dy="0">Grids, filtered data, derivatives,</tspan><tspan x="949.0" dy="17">interpretation products</tspan></text><path d="M 799,592 V 654 A 150.0,18 0 0 0 1099,654 V 592" fill="url(#cylGrad)" fill-opacity="0.98" /><ellipse cx="949.0" cy="654" rx="150.0" ry="18" fill="#adc6db" stroke="#ffffff" stroke-width="1.2" /><text x="949.0" y="621" font-family="Arial, Helvetica, sans-serif" font-size="17" font-weight="700" fill="#123154" text-anchor="middle">Provenance</text><text x="949.0" y="645" font-family="Arial, Helvetica, sans-serif" font-size="14" font-weight="400" fill="#35506f" text-anchor="middle"><tspan x="949.0" dy="0">Full processing history</tspan><tspan x="949.0" dy="17">for reproducibility</tspan></text><rect x="1166" y="185" width="322" height="96" rx="10" fill="#fffdf8" fill-opacity="0.92" stroke="#dab06d" stroke-width="1.2" /><text x="1327.0" y="219" font-family="Arial, Helvetica, sans-serif" font-size="17" font-weight="700" fill="#123154" text-anchor="middle">Survey processing</text><text x="1327.0" y="247" font-family="Arial, Helvetica, sans-serif" font-size="14" font-weight="400" fill="#35506f" text-anchor="middle"><tspan x="1327.0" dy="0">Despike, detrend, levelling,</tspan><tspan x="1327.0" dy="18">line/traverse corrections</tspan></text><rect x="1166" y="296" width="322" height="96" rx="10" fill="#fffdf8" fill-opacity="0.92" stroke="#dab06d" stroke-width="1.2" /><text x="1327.0" y="330" font-family="Arial, Helvetica, sans-serif" font-size="17" font-weight="700" fill="#123154" text-anchor="middle">Observation filters</text><text x="1327.0" y="358" font-family="Arial, Helvetica, sans-serif" font-size="14" font-weight="400" fill="#35506f" text-anchor="middle"><tspan x="1327.0" dy="0">Noise removal, destriping,</tspan><tspan x="1327.0" dy="18">background removal</tspan></text><rect x="1166" y="407" width="322" height="96" rx="10" fill="#fffdf8" fill-opacity="0.92" stroke="#dab06d" stroke-width="1.2" /><text x="1327.0" y="441" font-family="Arial, Helvetica, sans-serif" font-size="17" font-weight="700" fill="#123154" text-anchor="middle">Interpolation</text><text x="1327.0" y="469" font-family="Arial, Helvetica, sans-serif" font-size="14" font-weight="400" fill="#35506f" text-anchor="middle"><tspan x="1327.0" dy="0">TIN, IDW, kriging,</tspan><tspan x="1327.0" dy="18">explicit support masks</tspan></text><rect x="1166" y="518" width="322" height="96" rx="10" fill="#fffdf8" fill-opacity="0.92" stroke="#dab06d" stroke-width="1.2" /><text x="1327.0" y="552" font-family="Arial, Helvetica, sans-serif" font-size="17" font-weight="700" fill="#123154" text-anchor="middle">Raster filters</text><text x="1327.0" y="580" font-family="Arial, Helvetica, sans-serif" font-size="14" font-weight="400" fill="#35506f" text-anchor="middle"><tspan x="1327.0" dy="0">Gaussian / median, FFT filters,</tspan><tspan x="1327.0" dy="18">plane removal, upward continuation</tspan></text><rect x="1166" y="629" width="322" height="96" rx="10" fill="#fffdf8" fill-opacity="0.92" stroke="#dab06d" stroke-width="1.2" /><text x="1327.0" y="663" font-family="Arial, Helvetica, sans-serif" font-size="17" font-weight="700" fill="#123154" text-anchor="middle">QC &amp; analysis</text><text x="1327.0" y="691" font-family="Arial, Helvetica, sans-serif" font-size="14" font-weight="400" fill="#35506f" text-anchor="middle"><tspan x="1327.0" dy="0">Statistics, profiles,</tspan><tspan x="1327.0" dy="18">spectral analysis, anomaly enhancement</tspan></text><rect x="1534" y="185" width="322" height="110" rx="10" fill="#fffdf8" fill-opacity="0.92" stroke="#e3c06d" stroke-width="1.2" /><text x="1695.0" y="219" font-family="Arial, Helvetica, sans-serif" font-size="17" font-weight="700" fill="#123154" text-anchor="middle">Quantitative files</text><text x="1695.0" y="247" font-family="Arial, Helvetica, sans-serif" font-size="14" font-weight="400" fill="#35506f" text-anchor="middle"><tspan x="1695.0" dy="0">Grids, point data, derivatives</tspan><tspan x="1695.0" dy="18">(GeoTIFF, ASC, CSV, ...)</tspan></text><rect x="1534" y="312" width="322" height="110" rx="10" fill="#fffdf8" fill-opacity="0.92" stroke="#e3c06d" stroke-width="1.2" /><text x="1695.0" y="346" font-family="Arial, Helvetica, sans-serif" font-size="17" font-weight="700" fill="#123154" text-anchor="middle">Figures &amp; cartography</text><text x="1695.0" y="374" font-family="Arial, Helvetica, sans-serif" font-size="14" font-weight="400" fill="#35506f" text-anchor="middle"><tspan x="1695.0" dy="0">Maps, profiles, cross-sections</tspan></text><rect x="1534" y="439" width="322" height="110" rx="10" fill="#fffdf8" fill-opacity="0.92" stroke="#e3c06d" stroke-width="1.2" /><text x="1695.0" y="473" font-family="Arial, Helvetica, sans-serif" font-size="17" font-weight="700" fill="#123154" text-anchor="middle">Reports</text><text x="1695.0" y="501" font-family="Arial, Helvetica, sans-serif" font-size="14" font-weight="400" fill="#35506f" text-anchor="middle"><tspan x="1695.0" dy="0">Processing summary,</tspan><tspan x="1695.0" dy="18">parameters, QC results</tspan></text><rect x="1534" y="566" width="322" height="110" rx="10" fill="#fffdf8" fill-opacity="0.92" stroke="#e3c06d" stroke-width="1.2" /><text x="1695.0" y="600" font-family="Arial, Helvetica, sans-serif" font-size="17" font-weight="700" fill="#123154" text-anchor="middle">Local GIS interface</text><text x="1695.0" y="628" font-family="Arial, Helvetica, sans-serif" font-size="14" font-weight="400" fill="#35506f" text-anchor="middle"><tspan x="1695.0" dy="0">Interactive map, layer control,</tspan><tspan x="1695.0" dy="18">export, measurement tools</tspan></text><line x1="40" y1="835" x2="1880" y2="835" stroke="#d6e1ea" stroke-width="1.4" /><text x="960.0" y="825" font-family="Arial, Helvetica, sans-serif" font-size="16" font-weight="500" fill="#275285" text-anchor="middle" /></svg>